<svg id="visual" viewBox="0 0 900 600" width="900" height="600" xmlns="http://www.w3.org/2000/svg" xmlns:xlink="http://www.w3.org/1999/xlink" version="1.1"><g stroke-width="1" stroke-linejoin="bevel"><path d="M438 275L514 303L500 220Z" fill="#112e42" stroke="#112e42"></path><path d="M514 303L565 229L500 220Z" fill="#00101c" stroke="#00101c"></path><path d="M426 128L399 200L500 220Z" fill="#15384f" stroke="#15384f"></path><path d="M500 220L399 200L438 275Z" fill="#1d4e6b" stroke="#1d4e6b"></path><path d="M336 370L410 368L438 275Z" fill="#205a7a" stroke="#205a7a"></path><path d="M438 275L410 368L514 303Z" fill="#15384f" stroke="#15384f"></path><path d="M530 406L561 375L514 303Z" fill="#1d4e6b" stroke="#1d4e6b"></path><path d="M514 303L633 280L565 229Z" fill="#1d4e6b" stroke="#1d4e6b"></path><path d="M565 229L492 121L500 220Z" fill="#277297" stroke="#277297"></path><path d="M410 368L530 406L514 303Z" fill="#15384f" stroke="#15384f"></path><path d="M561 375L633 280L514 303Z" fill="#15384f" stroke="#15384f"></path><path d="M565 229L592 89L492 121Z" fill="#19435d" stroke="#19435d"></path><path d="M492 121L426 128L500 220Z" fill="#081a28" stroke="#081a28"></path><path d="M426 128L332 189L399 200Z" fill="#297ea6" stroke="#297ea6"></path><path d="M399 200L332 189L438 275Z" fill="#0c2435" stroke="#0c2435"></path><path d="M271 322L336 370L438 275Z" fill="#15384f" stroke="#15384f"></path><path d="M519 514L574 483L530 406Z" fill="#246688" stroke="#246688"></path><path d="M700 362L674 271L633 280Z" fill="#246688" stroke="#246688"></path><path d="M633 280L671 221L565 229Z" fill="#19435d" stroke="#19435d"></path><path d="M700 362L633 280L561 375Z" fill="#1d4e6b" stroke="#1d4e6b"></path><path d="M674 271L671 221L633 280Z" fill="#246688" stroke="#246688"></path><path d="M671 221L592 89L565 229Z" fill="#0c2435" stroke="#0c2435"></path><path d="M425 0L336 79L426 128Z" fill="#112e42" stroke="#112e42"></path><path d="M332 189L271 322L438 275Z" fill="#277297" stroke="#277297"></path><path d="M519 514L530 406L410 368Z" fill="#0c2435" stroke="#0c2435"></path><path d="M530 406L574 483L561 375Z" fill="#081a28" stroke="#081a28"></path><path d="M574 483L700 362L561 375Z" fill="#205a7a" stroke="#205a7a"></path><path d="M674 271L777 264L671 221Z" fill="#112e42" stroke="#112e42"></path><path d="M425 0L426 128L492 121Z" fill="#205a7a" stroke="#205a7a"></path><path d="M426 128L336 79L332 189Z" fill="#00101c" stroke="#00101c"></path><path d="M332 189L208 191L271 322Z" fill="#00101c" stroke="#00101c"></path><path d="M370 535L519 514L410 368Z" fill="#0c2435" stroke="#0c2435"></path><path d="M315 495L410 368L336 370Z" fill="#15384f" stroke="#15384f"></path><path d="M671 221L665 73L592 89Z" fill="#00101c" stroke="#00101c"></path><path d="M592 89L520 0L492 121Z" fill="#297ea6" stroke="#297ea6"></path><path d="M778 106L665 73L671 221Z" fill="#19435d" stroke="#19435d"></path><path d="M610 0L520 0L592 89Z" fill="#277297" stroke="#277297"></path><path d="M169 288L236 369L271 322Z" fill="#081a28" stroke="#081a28"></path><path d="M271 322L236 369L336 370Z" fill="#205a7a" stroke="#205a7a"></path><path d="M520 0L425 0L492 121Z" fill="#00101c" stroke="#00101c"></path><path d="M236 369L315 495L336 370Z" fill="#0c2435" stroke="#0c2435"></path><path d="M213 122L332 189L336 79Z" fill="#205a7a" stroke="#205a7a"></path><path d="M213 122L208 191L332 189Z" fill="#297ea6" stroke="#297ea6"></path><path d="M700 362L777 264L674 271Z" fill="#19435d" stroke="#19435d"></path><path d="M315 495L370 535L410 368Z" fill="#00101c" stroke="#00101c"></path><path d="M665 73L610 0L592 89Z" fill="#297ea6" stroke="#297ea6"></path><path d="M314 0L213 122L336 79Z" fill="#205a7a" stroke="#205a7a"></path><path d="M425 0L314 0L336 79Z" fill="#246688" stroke="#246688"></path><path d="M208 191L169 288L271 322Z" fill="#0c2435" stroke="#0c2435"></path><path d="M236 369L209 497L315 495Z" fill="#19435d" stroke="#19435d"></path><path d="M122 287L169 288L208 191Z" fill="#0c2435" stroke="#0c2435"></path><path d="M574 483L710 494L700 362Z" fill="#205a7a" stroke="#205a7a"></path><path d="M700 362L810 431L777 264Z" fill="#205a7a" stroke="#205a7a"></path><path d="M633 600L710 494L574 483Z" fill="#297ea6" stroke="#297ea6"></path><path d="M633 600L574 483L519 514Z" fill="#277297" stroke="#277297"></path><path d="M777 264L778 106L671 221Z" fill="#297ea6" stroke="#297ea6"></path><path d="M665 73L721 0L610 0Z" fill="#0c2435" stroke="#0c2435"></path><path d="M417 600L512 600L519 514Z" fill="#081a28" stroke="#081a28"></path><path d="M336 600L417 600L370 535Z" fill="#297ea6" stroke="#297ea6"></path><path d="M370 535L417 600L519 514Z" fill="#246688" stroke="#246688"></path><path d="M778 106L721 0L665 73Z" fill="#246688" stroke="#246688"></path><path d="M777 264L829 162L778 106Z" fill="#297ea6" stroke="#297ea6"></path><path d="M778 106L760 0L721 0Z" fill="#297ea6" stroke="#297ea6"></path><path d="M900 212L829 162L777 264Z" fill="#297ea6" stroke="#297ea6"></path><path d="M62 363L209 497L236 369Z" fill="#205a7a" stroke="#205a7a"></path><path d="M315 495L336 600L370 535Z" fill="#297ea6" stroke="#297ea6"></path><path d="M61 175L122 287L208 191Z" fill="#112e42" stroke="#112e42"></path><path d="M169 288L62 363L236 369Z" fill="#297ea6" stroke="#297ea6"></path><path d="M710 494L810 431L700 362Z" fill="#277297" stroke="#277297"></path><path d="M512 600L633 600L519 514Z" fill="#081a28" stroke="#081a28"></path><path d="M710 494L797 496L810 431Z" fill="#19435d" stroke="#19435d"></path><path d="M236 600L336 600L315 495Z" fill="#205a7a" stroke="#205a7a"></path><path d="M900 0L760 0L778 106Z" fill="#19435d" stroke="#19435d"></path><path d="M314 0L202 0L213 122Z" fill="#112e42" stroke="#112e42"></path><path d="M213 122L61 175L208 191Z" fill="#081a28" stroke="#081a28"></path><path d="M772 600L797 496L710 494Z" fill="#19435d" stroke="#19435d"></path><path d="M633 600L728 600L710 494Z" fill="#112e42" stroke="#112e42"></path><path d="M900 401L900 293L810 431Z" fill="#205a7a" stroke="#205a7a"></path><path d="M810 431L900 293L777 264Z" fill="#205a7a" stroke="#205a7a"></path><path d="M829 162L900 118L778 106Z" fill="#277297" stroke="#277297"></path><path d="M78 535L236 600L209 497Z" fill="#0c2435" stroke="#0c2435"></path><path d="M209 497L236 600L315 495Z" fill="#15384f" stroke="#15384f"></path><path d="M900 293L900 212L777 264Z" fill="#246688" stroke="#246688"></path><path d="M64 94L61 175L213 122Z" fill="#112e42" stroke="#112e42"></path><path d="M122 287L62 363L169 288Z" fill="#00101c" stroke="#00101c"></path><path d="M0 294L62 363L122 287Z" fill="#15384f" stroke="#15384f"></path><path d="M900 467L810 431L797 496Z" fill="#00101c" stroke="#00101c"></path><path d="M900 467L900 401L810 431Z" fill="#277297" stroke="#277297"></path><path d="M900 212L900 118L829 162Z" fill="#205a7a" stroke="#205a7a"></path><path d="M728 600L772 600L710 494Z" fill="#1d4e6b" stroke="#1d4e6b"></path><path d="M202 0L64 94L213 122Z" fill="#0c2435" stroke="#0c2435"></path><path d="M900 600L900 467L797 496Z" fill="#246688" stroke="#246688"></path><path d="M202 0L81 0L64 94Z" fill="#246688" stroke="#246688"></path><path d="M61 175L0 294L122 287Z" fill="#00101c" stroke="#00101c"></path><path d="M62 363L78 535L209 497Z" fill="#0c2435" stroke="#0c2435"></path><path d="M0 167L0 294L61 175Z" fill="#297ea6" stroke="#297ea6"></path><path d="M0 167L61 175L0 104Z" fill="#00101c" stroke="#00101c"></path><path d="M0 469L78 535L62 363Z" fill="#205a7a" stroke="#205a7a"></path><path d="M900 118L900 0L778 106Z" fill="#1d4e6b" stroke="#1d4e6b"></path><path d="M0 104L61 175L64 94Z" fill="#081a28" stroke="#081a28"></path><path d="M0 294L0 396L62 363Z" fill="#112e42" stroke="#112e42"></path><path d="M0 0L0 104L64 94Z" fill="#19435d" stroke="#19435d"></path><path d="M0 396L0 469L62 363Z" fill="#1d4e6b" stroke="#1d4e6b"></path><path d="M772 600L900 600L797 496Z" fill="#297ea6" stroke="#297ea6"></path><path d="M78 535L67 600L236 600Z" fill="#19435d" stroke="#19435d"></path><path d="M0 600L67 600L78 535Z" fill="#277297" stroke="#277297"></path><path d="M81 0L0 0L64 94Z" fill="#1d4e6b" stroke="#1d4e6b"></path><path d="M0 469L0 600L78 535Z" fill="#19435d" stroke="#19435d"></path></g></svg>